# xmcd
#
# Track frame offsets:
#	150
#	19583
#	70988
#	129420
#	164591
#	208729
#	250596
#	286212
#	298174
#
# Disc length: 4294 seconds
#
# Revision: 0
# Processed by: cddbd v1.5.2PL0 Copyright (c) Steve Scherf et al.
# Submitted via: audiograbber 1.83.01
#
DISCID=8610c409
DTITLE=Grateful Dead - 78-01-11 Shrine Auditorium, Los Angeles CA
DYEAR=1900
DGENRE=
TTITLE0=Sunrise
TTITLE1=Terrapin Station
TTITLE2=Playing In The Band
TTITLE3=Jam
TTITLE4=St Stephen
TTITLE5=Not Fade Away
TTITLE6=Playing In The Band
TTITLE7=Tuning
TTITLE8=Passenger
EXTD=
EXTT0=
EXTT1=
EXTT2=
EXTT3=
EXTT4=
EXTT5=
EXTT6=
EXTT7=
EXTT8=
PLAYORDER=
